<?xml version="1.0" encoding="UTF-8"?>
<svg xmlns="http://www.w3.org/2000/svg" xmlns:xlink="http://www.w3.org/1999/xlink" width="2834.88" height="2834.88" viewBox="0 0 2834.88 2834.88">

<path fill-rule="evenodd" fill="rgb(100%, 77.929688%, 7.102966%)" fill-opacity="1" d="M 1582.269531 1276.261719 C 1682.910156 1419.460938 1733.238281 1593.070312 1712.761719 1789.109375 C 1686.921875 2036.382812 1416.519531 2217.332031 1416.519531 2217.332031 C 1416.519531 2217.332031 1138.359375 2015.714844 1120.28125 1789.109375 C 1104.601562 1592.691406 1153.089844 1419.289062 1252.070312 1276.261719 L 1582.269531 1276.261719 "/>
<path fill-rule="evenodd" fill="rgb(0%, 0%, 0%)" fill-opacity="1" d="M 1605.660156 1259.828125 C 1710.109375 1408.449219 1762.441406 1588.621094 1741.179688 1792.078125 C 1714.148438 2050.855469 1432.410156 2241.085938 1432.410156 2241.085938 C 1422.46875 2247.738281 1409.429688 2247.496094 1399.738281 2240.472656 C 1399.738281 2240.472656 1296.488281 2165.695312 1209.890625 2055.386719 C 1150.488281 1979.730469 1099.460938 1887.507812 1091.789062 1791.378906 C 1075.550781 1587.839844 1126 1408.210938 1228.570312 1260 C 1233.910156 1252.289062 1242.691406 1247.679688 1252.070312 1247.679688 L 1582.269531 1247.679688 C 1591.578125 1247.679688 1600.308594 1252.21875 1605.660156 1259.828125 Z M 1567.25 1304.839844 L 1267.230469 1304.839844 C 1177.480469 1440.289062 1134.109375 1603.140625 1148.769531 1786.839844 C 1155.570312 1872 1202.21875 1953.058594 1254.851562 2020.089844 C 1316.121094 2098.136719 1386.230469 2157.3125 1417.171875 2181.820312 C 1474.679688 2139.332031 1663.480469 1985.699219 1684.328125 1786.140625 C 1703.460938 1603.039062 1658.480469 1440.25 1567.25 1304.839844 "/>
<path fill-rule="evenodd" fill="rgb(0%, 0%, 0%)" fill-opacity="1" d="M 1417.320312 787.011719 C 1590.511719 786.640625 1648.191406 895.421875 1648.191406 1028.949219 C 1648.191406 1162.488281 1544.738281 1270.898438 1417.320312 1270.898438 C 1289.910156 1270.898438 1186.460938 1162.488281 1186.460938 1028.949219 C 1186.460938 895.421875 1247.890625 787.371094 1417.320312 787.011719 "/>
<path fill-rule="evenodd" fill="rgb(92.1875%, 92.1875%, 92.1875%)" fill-opacity="1" d="M 752.585938 1523.871094 C 590.144531 1503.691406 445.40625 1370.359375 451.414062 1225.671875 C 457.105469 1088.648438 615.164062 978.109375 761.15625 959.808594 C 1031.539062 925.910156 1249.761719 1062.011719 1411.539062 1251.460938 L 1412.070312 1251.46875 C 1411.980469 1251.578125 1411.890625 1251.679688 1411.800781 1251.789062 C 1411.890625 1251.898438 1411.96875 1252.011719 1412.058594 1252.121094 L 1411.53125 1252.109375 C 1247.628906 1430.839844 1023.011719 1557.46875 752.585938 1523.871094 "/>
<path fill-rule="evenodd" fill="rgb(0%, 0%, 0%)" fill-opacity="1" d="M 1430.398438 1229.539062 C 1433.589844 1232.199219 1436.210938 1235.578125 1438.019531 1239.5 C 1439.898438 1243.558594 1440.761719 1247.921875 1440.640625 1252.230469 C 1440.621094 1256.539062 1439.628906 1260.871094 1437.640625 1264.878906 C 1435.691406 1268.78125 1432.921875 1272.101562 1429.601562 1274.679688 C 1259.941406 1458.238281 1027.769531 1586.871094 749.058594 1552.230469 C 571.832031 1530.210938 416.304688 1382.351562 422.859375 1224.488281 C 425.417969 1162.871094 454.71875 1105.710938 500.257812 1058.359375 C 565.347656 990.671875 663.769531 943.210938 757.601562 931.449219 C 1036.660156 896.460938 1262.761719 1034.648438 1430.398438 1229.539062 Z M 1373.289062 1251.089844 C 1219.480469 1078.71875 1015.730469 956.691406 764.710938 988.171875 C 683.351562 998.371094 597.898438 1039.289062 541.460938 1097.980469 C 505.976562 1134.871094 481.964844 1178.851562 479.972656 1226.859375 C 474.507812 1358.378906 608.449219 1477.160156 756.109375 1495.511719 C 1007.269531 1526.71875 1217.058594 1413.558594 1373.289062 1251.089844 "/>
<path fill-rule="evenodd" fill="rgb(92.1875%, 92.1875%, 92.1875%)" fill-opacity="1" d="M 1037.160156 1678.171875 C 914.457031 1720.75 764.683594 1676.589844 718.230469 1571.488281 C 674.246094 1471.960938 748 1337.859375 845.503906 1273.648438 C 1026.089844 1154.71875 1229.140625 1175.089844 1410.71875 1253.230469 L 1411.101562 1253.050781 C 1411.078125 1253.160156 1411.050781 1253.261719 1411.019531 1253.371094 C 1411.121094 1253.421875 1411.21875 1253.46875 1411.320312 1253.519531 L 1410.949219 1253.699219 C 1356.929688 1438.390625 1241.441406 1607.28125 1037.160156 1678.171875 "/>
<path fill-rule="evenodd" fill="rgb(0%, 0%, 0%)" fill-opacity="1" d="M 1418.351562 1225.398438 C 1422.210938 1226.410156 1425.878906 1228.238281 1429.089844 1230.839844 C 1432.550781 1233.648438 1435.238281 1237.148438 1437.039062 1241.050781 C 1438.910156 1244.910156 1439.921875 1249.210938 1439.898438 1253.660156 C 1439.878906 1257.851562 1438.949219 1261.890625 1437.25 1265.539062 C 1380.261719 1457.28125 1258.851562 1631.488281 1046.53125 1705.171875 C 909.746094 1752.640625 743.871094 1700.210938 692.089844 1583.039062 C 671.742188 1537 672.445312 1484.578125 688.714844 1433.480469 C 711.707031 1361.25 766.035156 1291.761719 829.785156 1249.78125 C 1017.800781 1125.949219 1229.011719 1144.839844 1418.351562 1225.398438 Z M 1376.058594 1269.808594 C 1209.25 1203.488281 1025.449219 1189.359375 861.222656 1297.511719 C 807.96875 1332.589844 762.390625 1390.480469 743.183594 1450.820312 C 731.316406 1488.089844 729.53125 1526.351562 744.375 1559.941406 C 785.5 1652.988281 919.15625 1688.871094 1027.789062 1651.171875 C 1213.679688 1586.660156 1321.789062 1436.449219 1376.058594 1269.808594 "/>
<path fill-rule="evenodd" fill="rgb(92.1875%, 92.1875%, 92.1875%)" fill-opacity="1" d="M 2082.058594 1523.871094 C 2244.5 1503.691406 2389.238281 1370.359375 2383.230469 1225.671875 C 2377.539062 1088.648438 2219.480469 978.109375 2073.488281 959.808594 C 1803.109375 925.910156 1584.878906 1062.011719 1423.101562 1251.460938 L 1422.578125 1251.46875 C 1422.671875 1251.578125 1422.761719 1251.679688 1422.839844 1251.789062 C 1422.761719 1251.898438 1422.671875 1252.011719 1422.589844 1252.121094 L 1423.109375 1252.109375 C 1587.019531 1430.839844 1811.640625 1557.46875 2082.058594 1523.871094 "/>
<path fill-rule="evenodd" fill="rgb(0%, 0%, 0%)" fill-opacity="1" d="M 1404.25 1229.539062 C 1571.890625 1034.648438 1797.988281 896.460938 2077.039062 931.449219 C 2170.878906 943.210938 2269.300781 990.671875 2334.390625 1058.359375 C 2379.929688 1105.710938 2409.230469 1162.871094 2411.789062 1224.488281 C 2418.339844 1382.351562 2262.820312 1530.210938 2085.589844 1552.230469 C 1806.878906 1586.871094 1574.710938 1458.238281 1405.039062 1274.679688 C 1401.730469 1272.101562 1398.960938 1268.78125 1397.011719 1264.878906 C 1395.011719 1260.871094 1394.019531 1256.539062 1394.011719 1252.230469 C 1393.890625 1247.921875 1394.75 1243.558594 1396.628906 1239.5 C 1398.429688 1235.578125 1401.058594 1232.199219 1404.25 1229.539062 Z M 1461.359375 1251.089844 C 1617.578125 1413.558594 1827.371094 1526.71875 2078.539062 1495.511719 C 2226.199219 1477.160156 2360.140625 1358.378906 2354.671875 1226.859375 C 2352.679688 1178.851562 2328.671875 1134.871094 2293.191406 1097.980469 C 2236.75 1039.289062 2151.289062 998.371094 2069.929688 988.171875 C 1818.921875 956.691406 1615.171875 1078.71875 1461.359375 1251.089844 "/>
<path fill-rule="evenodd" fill="rgb(92.1875%, 92.1875%, 92.1875%)" fill-opacity="1" d="M 1797.480469 1678.171875 C 1920.191406 1720.75 2069.960938 1676.589844 2116.410156 1571.488281 C 2160.398438 1471.960938 2086.640625 1337.859375 1989.140625 1273.648438 C 1808.558594 1154.71875 1605.5 1175.089844 1423.921875 1253.230469 L 1423.550781 1253.050781 C 1423.570312 1253.160156 1423.601562 1253.261719 1423.621094 1253.371094 C 1423.519531 1253.421875 1423.421875 1253.46875 1423.320312 1253.519531 L 1423.699219 1253.699219 C 1477.710938 1438.390625 1593.210938 1607.28125 1797.480469 1678.171875 "/>
<path fill-rule="evenodd" fill="rgb(0%, 0%, 0%)" fill-opacity="1" d="M 1397.609375 1241.050781 C 1399.410156 1237.148438 1402.089844 1233.648438 1405.550781 1230.839844 C 1408.769531 1228.238281 1412.441406 1226.410156 1416.300781 1225.398438 C 1605.640625 1144.839844 1816.851562 1125.949219 2004.859375 1249.78125 C 2068.609375 1291.761719 2122.941406 1361.25 2145.929688 1433.480469 C 2162.199219 1484.578125 2162.898438 1537 2142.550781 1583.039062 C 2090.769531 1700.210938 1924.898438 1752.640625 1788.109375 1705.171875 C 1575.789062 1631.488281 1454.390625 1457.28125 1397.398438 1265.539062 C 1395.699219 1261.890625 1394.761719 1257.851562 1394.738281 1253.660156 C 1394.71875 1249.210938 1395.738281 1244.910156 1397.609375 1241.050781 Z M 1458.589844 1269.808594 C 1512.859375 1436.449219 1620.96875 1586.660156 1806.851562 1651.171875 C 1915.488281 1688.871094 2049.148438 1652.988281 2090.269531 1559.941406 C 2105.109375 1526.351562 2103.328125 1488.089844 2091.460938 1450.820312 C 2072.261719 1390.480469 2026.679688 1332.589844 1973.421875 1297.511719 C 1809.191406 1189.359375 1625.398438 1203.488281 1458.578125 1269.808594 "/>
<path fill-rule="evenodd" fill="rgb(0%, 0%, 0%)" fill-opacity="1" d="M 1703.828125 1715.800781 C 1718.808594 1710.839844 1734.988281 1718.96875 1739.941406 1733.949219 C 1744.898438 1748.929688 1736.769531 1765.109375 1721.789062 1770.058594 C 1523.25 1835.769531 1320.410156 1837.472656 1113.011719 1770.109375 C 1098 1765.238281 1089.78125 1749.101562 1094.648438 1734.101562 C 1099.519531 1719.101562 1115.660156 1710.871094 1130.660156 1715.75 C 1325.941406 1779.171875 1516.910156 1777.660156 1703.828125 1715.800781 "/>
<path fill-rule="evenodd" fill="rgb(0%, 0%, 0%)" fill-opacity="1" d="M 1653.308594 1921.605469 C 1668.53125 1917.472656 1684.25 1926.472656 1688.378906 1941.695312 C 1692.511719 1956.917969 1683.511719 1972.632812 1668.289062 1976.769531 C 1503.988281 2021.386719 1336.75 2022.222656 1166.429688 1976.449219 C 1151.191406 1972.355469 1142.148438 1956.664062 1146.238281 1941.429688 C 1150.339844 1926.195312 1166.03125 1917.152344 1181.261719 1921.246094 C 1341.46875 1964.300781 1498.769531 1963.570312 1653.308594 1921.605469 "/>
<path fill-rule="evenodd" fill="rgb(0%, 0%, 0%)" fill-opacity="1" d="M 1480.730469 2128.746094 C 1496.46875 2127.628906 1510.148438 2139.496094 1511.269531 2155.230469 C 1512.390625 2170.964844 1500.519531 2184.644531 1484.789062 2185.765625 C 1438.070312 2189.085938 1391.128906 2188.882812 1343.941406 2185.089844 C 1328.21875 2183.824219 1316.480469 2170.035156 1317.738281 2154.3125 C 1319.011719 2138.589844 1332.800781 2126.847656 1348.519531 2128.113281 C 1392.808594 2131.671875 1436.878906 2131.863281 1480.730469 2128.746094 "/>
<path fill-rule="evenodd" fill="rgb(0%, 0%, 0%)" fill-opacity="1" d="M 1588.140625 1529.191406 C 1603.609375 1526.101562 1618.679688 1536.148438 1621.769531 1551.621094 C 1624.859375 1567.089844 1614.808594 1582.160156 1599.339844 1585.25 C 1479.640625 1609.160156 1358.390625 1609.871094 1235.519531 1586.300781 C 1220.03125 1583.328125 1209.859375 1568.339844 1212.839844 1552.851562 C 1215.808594 1537.359375 1230.800781 1527.191406 1246.289062 1530.160156 C 1361.738281 1552.308594 1475.671875 1551.671875 1588.140625 1529.191406 "/>
<path fill-rule="evenodd" fill="rgb(0%, 0%, 0%)" fill-opacity="1" d="M 1359.308594 837.660156 C 1368.589844 850.421875 1365.769531 868.308594 1353.019531 877.589844 C 1340.261719 886.871094 1322.371094 884.050781 1313.089844 871.289062 C 1264.898438 805.070312 1207.941406 742.128906 1137.628906 684.199219 C 1125.449219 674.171875 1123.710938 656.140625 1133.738281 643.96875 C 1143.78125 631.789062 1161.800781 630.050781 1173.980469 640.078125 C 1248.230469 701.269531 1308.410156 767.71875 1359.308594 837.660156 "/>
<path fill-rule="evenodd" fill="rgb(0%, 0%, 0%)" fill-opacity="1" d="M 1115.050781 543.421875 C 1157.828125 543.421875 1192.558594 578.148438 1192.558594 620.929688 C 1192.558594 663.699219 1157.828125 698.429688 1115.050781 698.429688 C 1072.28125 698.429688 1037.550781 663.699219 1037.550781 620.929688 C 1037.550781 578.148438 1072.28125 543.421875 1115.050781 543.421875 "/>
<path fill-rule="evenodd" fill="rgb(0%, 0%, 0%)" fill-opacity="1" d="M 1521.558594 871.289062 C 1512.269531 884.050781 1494.378906 886.871094 1481.628906 877.589844 C 1468.871094 868.308594 1466.050781 850.421875 1475.339844 837.660156 C 1526.230469 767.71875 1586.410156 701.261719 1660.671875 640.078125 C 1672.839844 630.050781 1690.871094 631.789062 1700.898438 643.96875 C 1710.929688 656.140625 1709.191406 674.171875 1697.019531 684.199219 C 1626.710938 742.128906 1569.738281 805.070312 1521.558594 871.289062 "/>
<path fill-rule="evenodd" fill="rgb(0%, 0%, 0%)" fill-opacity="1" d="M 1719.589844 543.421875 C 1676.820312 543.421875 1642.089844 578.148438 1642.089844 620.929688 C 1642.089844 663.699219 1676.820312 698.429688 1719.589844 698.429688 C 1762.371094 698.429688 1797.101562 663.699219 1797.101562 620.929688 C 1797.101562 578.148438 1762.371094 543.421875 1719.589844 543.421875 "/>
</svg>
